<?xml version="1.0" encoding="utf-8"?>
<!-- Generator: Adobe Illustrator 25.1.0, SVG Export Plug-In . SVG Version: 6.00 Build 0)  -->
<svg version="1.1" id="Layer_1" xmlns="http://www.w3.org/2000/svg" xmlns:xlink="http://www.w3.org/1999/xlink" x="0px" y="0px"
	 viewBox="0 0 70.2 22.39" style="enable-background:new 0 0 70.2 22.39;" xml:space="preserve">
<style type="text/css">
	.st0{fill:none;}
	.st1{fill:#2E3192;}
	.st2{fill:none;stroke:#2E3192;stroke-width:2;stroke-miterlimit:10;}
	.st3{fill:none;stroke:#000000;stroke-width:2;stroke-miterlimit:10;}
	.st4{fill:#39B54A;}
	.st5{fill:none;stroke:#39B54A;stroke-width:2;stroke-miterlimit:10;}
	.st6{fill:#673795;}
	.st7{fill:none;stroke:#673795;stroke-width:2;stroke-miterlimit:10;}
	.st8{fill:#EC008C;}
	.st9{fill:none;stroke:#EC008C;stroke-width:2;stroke-miterlimit:10;}
	.st10{fill:#8B5E3C;}
	.st11{fill:none;stroke:#8B5E3C;stroke-width:2;stroke-miterlimit:10;}
	.st12{fill:#EF4136;}
	.st13{fill:none;stroke:#EF4136;stroke-width:2;stroke-miterlimit:10;}
	.st14{fill:#00AEEF;}
	.st15{fill:none;stroke:#00AEEF;stroke-width:2;stroke-miterlimit:10;}
	.st16{fill:#662D91;}
	.st17{fill:none;stroke:#662D91;stroke-width:2;stroke-miterlimit:10;}
	.st18{fill:#00A651;}
	.st19{fill:none;stroke:#00A651;stroke-width:2;stroke-miterlimit:10;}
</style>
<g>
	<g>
		<rect x="2.64" y="0.01" class="st0" width="64.09" height="22.38"/>
		<path class="st14" d="M14.79,14.15c0,1.28-1.7,2.1-5.29,2.1c-4.42,0-6.46-1.65-6.46-5.61c0-4.32,3.31-6.54,7.77-6.54
			c2.8,0,3.7,0.69,3.7,1.98c0,0.8-0.42,1.35-1,1.71c-0.3-0.12-0.96-0.22-1.66-0.22c-2.61,0-3.93,0.98-3.93,3.18
			c0,1.92,0.72,2.61,2.19,2.61c0.23,0,0.45-0.02,0.68-0.06v-0.75H9.95c-0.25-0.33-0.32-0.61-0.32-1.08c0-0.98,0.64-1.37,2.74-1.37
			c2.32,0,2.44,0.18,2.44,1.41L14.79,14.15z"/>
		<path class="st14" d="M25.26,16.21c-1.25,0-1.89-0.27-2.23-1.22l-1.08-3.02H21.4v3.89c-0.28,0.16-1.04,0.29-2.02,0.29
			c-1.87,0-2.36-0.37-2.42-1.06c-0.06-0.75-0.11-2.61-0.11-4.34c0-1,0.02-2.1,0.11-3.49l-1,0.04c-0.3-0.31-0.45-0.77-0.45-1.24
			c0-1.57,1.1-1.92,6.22-1.92c4.25,0,5.93,1.33,5.93,3.73c0,1.71-0.85,2.49-1.61,2.9l1.51,2.69l0.85-0.02
			c0.21,0.35,0.32,0.67,0.32,1.12C28.72,15.66,27.73,16.21,25.26,16.21z M22.03,7.18h-0.62v2.59c0.15,0.02,0.32,0.02,0.47,0.02
			c0.85,0,1.61-0.47,1.61-1.45C23.5,7.63,23.05,7.18,22.03,7.18z"/>
		<path class="st14" d="M37.71,7.39c-0.45,0-1.95,0-2.85-0.04v1.67l3.57-0.04c0.19,0.31,0.25,0.82,0.25,1.16
			c0,0.94-0.55,1.55-2.04,1.55c-0.57,0-1.78-0.04-1.78-0.04v1.69l4.74-0.04c0.21,0.35,0.34,0.84,0.34,1.2c0,1.26-0.7,1.67-4.76,1.67
			c-3.7,0-4.61-0.08-4.84-0.82c-0.17-0.51-0.17-2.59-0.17-4.61c0-1.53,0.04-2.63,0.08-3.45l-1.02-0.02c-0.28-0.41-0.4-0.94-0.4-1.49
			c0-0.92,0.72-1.51,2.27-1.51l6.48,0.02l2.12-0.06c0.28,0.31,0.49,0.84,0.49,1.35C40.19,6.88,39.41,7.39,37.71,7.39z"/>
		<path class="st14" d="M49.22,7.39c-0.45,0-1.95,0-2.85-0.04v1.67l3.57-0.04c0.19,0.31,0.25,0.82,0.25,1.16
			c0,0.94-0.55,1.55-2.04,1.55c-0.57,0-1.78-0.04-1.78-0.04v1.69l4.74-0.04c0.21,0.35,0.34,0.84,0.34,1.2c0,1.26-0.7,1.67-4.76,1.67
			c-3.7,0-4.61-0.08-4.84-0.82c-0.17-0.51-0.17-2.59-0.17-4.61c0-1.53,0.04-2.63,0.08-3.45l-1.02-0.02c-0.28-0.41-0.4-0.94-0.4-1.49
			c0-0.92,0.72-1.51,2.27-1.51l6.48,0.02l2.12-0.06c0.28,0.31,0.49,0.84,0.49,1.35C51.7,6.88,50.92,7.39,49.22,7.39z"/>
		<path class="st14" d="M65.64,15.83c-0.53,0.26-1.21,0.35-1.85,0.35c-1.12,0-1.63-0.12-2.06-0.49c-0.98-0.88-4.21-4.51-4.84-5.59
			c0.08,0.49,0.15,1.2,0.15,1.75l-0.02,4.1c-0.38,0.14-1.02,0.2-1.7,0.2c-1.49,0-1.93-0.31-2-0.88c-0.08-0.75-0.13-2.51-0.13-4.53
			c0-1.53,0.04-2.73,0.08-3.55l-1.06,0.02c-0.23-0.39-0.36-0.79-0.36-1.43c0-1.16,0.87-1.61,3.14-1.61c2.06,0,2.66,0.31,3.61,1.41
			l2.57,2.96c0.42,0.51,0.81,0.98,0.93,1.33V8.75c0-2.02-0.02-3.12-0.08-4.18c0.45-0.29,1.15-0.41,1.89-0.41
			c1.64,0,1.91,0.49,1.91,3.59C65.83,11.48,65.74,14.15,65.64,15.83z"/>
	</g>
	<rect x="1" y="1" class="st15" width="68.2" height="18"/>
</g>
</svg>
