<?xml version="1.0" encoding="utf-8"?>
<!-- Generator: Adobe Illustrator 25.1.0, SVG Export Plug-In . SVG Version: 6.00 Build 0)  -->
<svg version="1.1" id="Layer_1" xmlns="http://www.w3.org/2000/svg" xmlns:xlink="http://www.w3.org/1999/xlink" x="0px" y="0px"
	 viewBox="0 0 70.2 21.54" style="enable-background:new 0 0 70.2 21.54;" xml:space="preserve">
<style type="text/css">
	.st0{fill:none;}
	.st1{fill:#2E3192;}
	.st2{fill:none;stroke:#2E3192;stroke-width:2;stroke-miterlimit:10;}
	.st3{fill:none;stroke:#000000;stroke-width:2;stroke-miterlimit:10;}
	.st4{fill:#39B54A;}
	.st5{fill:none;stroke:#39B54A;stroke-width:2;stroke-miterlimit:10;}
	.st6{fill:#673795;}
	.st7{fill:none;stroke:#673795;stroke-width:2;stroke-miterlimit:10;}
	.st8{fill:#EC008C;}
	.st9{fill:none;stroke:#EC008C;stroke-width:2;stroke-miterlimit:10;}
	.st10{fill:#8B5E3C;}
	.st11{fill:none;stroke:#8B5E3C;stroke-width:2;stroke-miterlimit:10;}
	.st12{fill:#EF4136;}
	.st13{fill:none;stroke:#EF4136;stroke-width:2;stroke-miterlimit:10;}
	.st14{fill:#00AEEF;}
	.st15{fill:none;stroke:#00AEEF;stroke-width:2;stroke-miterlimit:10;}
	.st16{fill:#662D91;}
	.st17{fill:none;stroke:#662D91;stroke-width:2;stroke-miterlimit:10;}
	.st18{fill:#00A651;}
	.st19{fill:none;stroke:#00A651;stroke-width:2;stroke-miterlimit:10;}
</style>
<g>
	<g>
		<rect x="3.03" y="0.02" class="st0" width="63.69" height="21.52"/>
		<path class="st10" d="M8.56,15.54c-3,0-3.8-0.22-3.95-0.92c-0.11-0.53-0.17-2.33-0.17-4.27c0-1.47,0.04-2.57,0.09-3.35L3.53,7.03
			c-0.3-0.29-0.45-0.75-0.45-1.2c0-1.51,1.12-1.84,6.33-1.84c4.58,0,5.51,1.37,5.51,2.94c0,1.04-0.71,1.88-1.64,2.16
			c1.56,0.33,2.18,1.25,2.18,2.45C15.46,14.09,13.28,15.54,8.56,15.54z M9.65,6.87H9.06v1.96c0.28-0.02,0.76-0.02,1.51-0.02
			c0.24-0.25,0.32-0.57,0.32-1.02C10.9,7.24,10.51,6.87,9.65,6.87z M9.8,10.79c-0.22,0-0.5,0.02-0.71,0.04v2.2
			c0.15,0.02,0.32,0.04,0.5,0.04c0.91,0,1.6-0.39,1.6-1.29C11.18,11.17,10.86,10.79,9.8,10.79z"/>
		<path class="st10" d="M21.49,15.56c-3.37,0-3.87-0.14-4.08-0.86c-0.11-0.35-0.15-1.94-0.15-4.35c0-1.49,0.04-2.63,0.11-3.41
			l-1.08,0.02c-0.24-0.37-0.37-0.75-0.37-1.35c0-1.18,0.8-1.57,3.65-1.57c2.14,0,2.68,0.24,2.68,1.1l-0.02,7.78l3.52-0.04
			c0.17,0.31,0.28,0.71,0.28,1.18C26.03,15.48,24.47,15.56,21.49,15.56z"/>
		<path class="st10" d="M36.77,15.62c-1.32,0-1.92-0.16-2.29-1.06l-0.63-1.51l-2.74-0.02l-0.97,2.41c-0.3,0.06-0.97,0.14-1.71,0.14
			c-1.4,0-1.92-0.41-1.92-1.39c0-0.49,0.13-0.9,0.5-1.59l3.52-7.04c0.58-1.14,1.25-1.55,2.85-1.55c0.8,0,1.53,0.14,2.03,0.29
			l4.13,8.69l0.69-0.04c0.19,0.31,0.3,0.71,0.3,1C40.53,15.22,39.51,15.62,36.77,15.62z M32.58,8.69l-0.89,2.31l1.64-0.02
			L32.58,8.69z"/>
		<path class="st10" d="M46.84,15.66c-4.02,0-6.27-1.57-6.27-5.31c0-3.76,2.87-6.39,7.61-6.39c2.77,0,3.63,0.65,3.63,1.88
			c0,0.76-0.48,1.41-1.12,1.76c-0.3-0.1-1.02-0.2-1.73-0.2c-2.18,0-3.31,1.1-3.31,2.63c0,1.76,0.8,2.37,2.29,2.37
			c1.04,0,2.12-0.24,2.77-0.55c0.76,0.25,1.28,0.9,1.28,1.59C51.98,14.91,50.1,15.66,46.84,15.66z"/>
		<path class="st10" d="M63.27,15.6c-1.49,0-1.82-0.22-2.27-0.75c-0.54-0.63-1.43-1.9-2.14-2.9c-0.15-0.22-0.3-0.47-0.41-0.78v4.04
			c-0.32,0.23-1.17,0.33-2.18,0.33c-1.88,0-2.46-0.31-2.51-1.02c-0.07-0.96-0.11-2.71-0.11-4.18c0-1.49,0.02-2.65,0.09-3.41
			l-1.06,0.02c-0.28-0.41-0.39-0.78-0.39-1.31c0-1.29,0.97-1.61,3.57-1.61c2.14,0,2.61,0.24,2.61,1.1l-0.02,3.43
			c0.15-0.29,0.52-0.77,0.91-1.22l2.01-2.25c0.78-0.86,1.66-1.1,2.98-1.1c1.06,0,1.73,0.53,1.73,1.43c0,0.27-0.04,0.53-0.13,0.78
			l-3.52,3.1l3.2,3.69l0.82-0.04c0.19,0.31,0.28,0.69,0.28,1.02C66.72,15.26,65.6,15.6,63.27,15.6z"/>
	</g>
	<rect x="1" y="1" class="st11" width="68.2" height="18"/>
</g>
</svg>
