<?xml version="1.0" encoding="utf-8"?>
<!-- Generator: Adobe Illustrator 25.1.0, SVG Export Plug-In . SVG Version: 6.00 Build 0)  -->
<svg version="1.1" id="Layer_1" xmlns="http://www.w3.org/2000/svg" xmlns:xlink="http://www.w3.org/1999/xlink" x="0px" y="0px"
	 viewBox="0 0 70.2 22.22" style="enable-background:new 0 0 70.2 22.22;" xml:space="preserve">
<style type="text/css">
	.st0{fill:none;}
	.st1{fill:#2E3192;}
	.st2{fill:none;stroke:#2E3192;stroke-width:2;stroke-miterlimit:10;}
	.st3{fill:none;stroke:#000000;stroke-width:2;stroke-miterlimit:10;}
	.st4{fill:#39B54A;}
	.st5{fill:none;stroke:#39B54A;stroke-width:2;stroke-miterlimit:10;}
	.st6{fill:#673795;}
	.st7{fill:none;stroke:#673795;stroke-width:2;stroke-miterlimit:10;}
	.st8{fill:#EC008C;}
	.st9{fill:none;stroke:#EC008C;stroke-width:2;stroke-miterlimit:10;}
	.st10{fill:#8B5E3C;}
	.st11{fill:none;stroke:#8B5E3C;stroke-width:2;stroke-miterlimit:10;}
	.st12{fill:#EF4136;}
	.st13{fill:none;stroke:#EF4136;stroke-width:2;stroke-miterlimit:10;}
	.st14{fill:#00AEEF;}
	.st15{fill:none;stroke:#00AEEF;stroke-width:2;stroke-miterlimit:10;}
	.st16{fill:#662D91;}
	.st17{fill:none;stroke:#662D91;stroke-width:2;stroke-miterlimit:10;}
	.st18{fill:#00A651;}
	.st19{fill:none;stroke:#00A651;stroke-width:2;stroke-miterlimit:10;}
</style>
<g>
	<g>
		<rect x="3.03" y="0.03" class="st0" width="64" height="22.2"/>
		<path class="st8" d="M7.75,16.22c-2.99,0-4.4-0.69-4.4-2.16c0-0.77,0.44-1.46,1.27-1.74c0.67,0.46,1.53,0.85,2.84,0.85
			c1.07,0,1.51-0.16,1.51-0.42c0-0.2-0.18-0.28-0.42-0.34c-0.61-0.16-1.33-0.38-2.4-0.73c-1.59-0.53-2.58-1.64-2.58-3.28
			c0-2.57,1.98-4.37,5.45-4.37c2.92,0,4.14,0.93,4.14,2.18c0,1.07-0.58,1.66-1.55,1.88c-0.3-0.32-1.43-0.75-2.36-0.75
			c-1.23,0-1.77,0.18-1.77,0.53c0,0.24,0.14,0.28,0.38,0.34c0.73,0.14,1.55,0.34,2.64,0.65c2.1,0.59,2.78,1.84,2.78,3.15
			C13.28,14.3,11.53,16.22,7.75,16.22z"/>
		<path class="st8" d="M19.86,16.04c-0.52,0-5.25-0.04-5.49-0.04c-0.24-0.36-0.34-0.75-0.34-1.23c0-1.11,0.87-1.27,1.55-1.27
			c-0.04-0.81-0.06-1.82-0.06-2.75c0.02-1.52,0.04-2.81,0.1-3.54l-1.31-0.04c-0.26-0.4-0.36-0.85-0.36-1.39
			c0-0.91,0.75-1.52,2.22-1.5l3.35,0.06l1.96-0.06c0.26,0.4,0.36,0.77,0.36,1.31c0,0.93-0.54,1.66-1.57,1.66h-0.28v6.17l1.53-0.06
			c0.22,0.4,0.32,0.87,0.32,1.27C21.83,15.49,21.17,16.04,19.86,16.04z"/>
		<path class="st8" d="M27.44,16.06c-3.15,0-3.61-0.14-3.81-0.89c-0.1-0.36-0.14-2-0.14-4.49c0-1.54,0.04-2.71,0.1-3.52l-1.01,0.02
			c-0.22-0.38-0.34-0.77-0.34-1.4c0-1.21,0.75-1.62,3.41-1.62c2,0,2.5,0.24,2.5,1.13l-0.02,8.03l3.29-0.04
			c0.16,0.32,0.26,0.73,0.26,1.21C31.67,15.97,30.22,16.06,27.44,16.06z"/>
		<path class="st8" d="M42.83,8.01l-3.71,7.95c-0.34,0.08-1.05,0.14-1.82,0.14c-1.98,0-2.64-0.51-3.09-1.68l-2.72-7.26l-0.6,0.02
			c-0.28-0.36-0.4-0.83-0.4-1.38c0-1.23,0.79-1.62,3.23-1.62c1.47,0,1.9,0.32,2.22,1.21l1.96,5.74c0,0,1.8-4.79,2.38-6.75
			c0.38-0.2,0.83-0.26,1.49-0.26c1.33,0,1.78,0.59,1.78,1.48C43.53,6.33,43.33,6.92,42.83,8.01z"/>
		<path class="st8" d="M51.92,7.34c-0.42,0-1.86,0-2.7-0.04v1.66l3.39-0.04c0.18,0.3,0.24,0.81,0.24,1.15
			c0,0.93-0.53,1.54-1.94,1.54c-0.54,0-1.7-0.04-1.7-0.04v1.68l4.5-0.04c0.2,0.34,0.32,0.83,0.32,1.19c0,1.25-0.67,1.66-4.52,1.66
			c-3.51,0-4.38-0.08-4.6-0.81c-0.16-0.51-0.16-2.57-0.16-4.57c0-1.52,0.04-2.61,0.08-3.42l-0.97-0.02
			c-0.26-0.4-0.38-0.93-0.38-1.48c0-0.91,0.69-1.5,2.16-1.5l6.15,0.02l2.02-0.06c0.26,0.3,0.46,0.83,0.46,1.33
			C54.28,6.84,53.54,7.34,51.92,7.34z"/>
		<path class="st8" d="M63.68,16.1c-1.19,0-1.79-0.26-2.12-1.21l-1.03-2.99h-0.52v3.86c-0.26,0.16-0.99,0.28-1.92,0.28
			c-1.77,0-2.24-0.36-2.3-1.05c-0.06-0.75-0.1-2.59-0.1-4.31c0-0.99,0.02-2.08,0.1-3.46l-0.95,0.04c-0.28-0.3-0.42-0.77-0.42-1.23
			c0-1.56,1.05-1.9,5.91-1.9c4.04,0,5.63,1.31,5.63,3.7c0,1.7-0.81,2.47-1.53,2.87l1.43,2.67l0.81-0.02c0.2,0.34,0.3,0.67,0.3,1.11
			C66.97,15.55,66.02,16.1,63.68,16.1z M60.62,7.14h-0.59v2.57c0.14,0.02,0.3,0.02,0.44,0.02c0.81,0,1.53-0.47,1.53-1.44
			C62.01,7.58,61.58,7.14,60.62,7.14z"/>
	</g>
	<rect x="1" y="1" class="st9" width="68.2" height="18"/>
</g>
</svg>
