<?xml version="1.0" encoding="utf-8"?>
<!-- Generator: Adobe Illustrator 25.1.0, SVG Export Plug-In . SVG Version: 6.00 Build 0)  -->
<svg version="1.1" id="Layer_1" xmlns="http://www.w3.org/2000/svg" xmlns:xlink="http://www.w3.org/1999/xlink" x="0px" y="0px"
	 viewBox="0 0 70.2 22.22" style="enable-background:new 0 0 70.2 22.22;" xml:space="preserve">
<style type="text/css">
	.st0{fill:none;}
	.st1{fill:#2E3192;}
	.st2{fill:none;stroke:#2E3192;stroke-width:2;stroke-miterlimit:10;}
	.st3{fill:none;stroke:#000000;stroke-width:2;stroke-miterlimit:10;}
	.st4{fill:#39B54A;}
	.st5{fill:none;stroke:#39B54A;stroke-width:2;stroke-miterlimit:10;}
	.st6{fill:#673795;}
	.st7{fill:none;stroke:#673795;stroke-width:2;stroke-miterlimit:10;}
	.st8{fill:#EC008C;}
	.st9{fill:none;stroke:#EC008C;stroke-width:2;stroke-miterlimit:10;}
	.st10{fill:#8B5E3C;}
	.st11{fill:none;stroke:#8B5E3C;stroke-width:2;stroke-miterlimit:10;}
	.st12{fill:#EF4136;}
	.st13{fill:none;stroke:#EF4136;stroke-width:2;stroke-miterlimit:10;}
	.st14{fill:#00AEEF;}
	.st15{fill:none;stroke:#00AEEF;stroke-width:2;stroke-miterlimit:10;}
	.st16{fill:#662D91;}
	.st17{fill:none;stroke:#662D91;stroke-width:2;stroke-miterlimit:10;}
	.st18{fill:#00A651;}
	.st19{fill:none;stroke:#00A651;stroke-width:2;stroke-miterlimit:10;}
</style>
<g>
	<g>
		<rect x="2.95" y="0.03" class="st0" width="64" height="22.2"/>
		<path class="st8" d="M14.75,8.01l-3.57,7.95c-0.33,0.08-1.01,0.14-1.75,0.14c-1.9,0-2.54-0.51-2.97-1.68L3.85,7.16L3.26,7.18
			C2.99,6.82,2.87,6.35,2.87,5.8c0-1.23,0.76-1.62,3.11-1.62c1.42,0,1.82,0.32,2.13,1.21L10,11.14c0,0,1.73-4.79,2.29-6.75
			c0.37-0.2,0.8-0.26,1.44-0.26c1.28,0,1.71,0.59,1.71,1.48C15.43,6.33,15.24,6.92,14.75,8.01z"/>
		<path class="st8" d="M21.37,16.04c-0.5,0-5.05-0.04-5.28-0.04c-0.23-0.36-0.33-0.75-0.33-1.23c0-1.11,0.83-1.27,1.49-1.27
			c-0.04-0.81-0.06-1.82-0.06-2.75c0.02-1.52,0.04-2.81,0.1-3.54l-1.26-0.04c-0.25-0.4-0.35-0.85-0.35-1.39
			c0-0.91,0.72-1.52,2.13-1.5l3.22,0.06l1.88-0.06c0.25,0.41,0.35,0.77,0.35,1.31c0,0.93-0.52,1.66-1.51,1.66h-0.27v6.17l1.48-0.06
			c0.21,0.4,0.31,0.87,0.31,1.27C23.28,15.49,22.64,16.04,21.37,16.04z"/>
		<path class="st8" d="M29.84,16.16c-3.59,0-6.08-1.29-6.08-5.36c0-4.1,2.54-6.75,6.64-6.75c3.71,0,5.73,1.98,5.73,5.74
			C36.13,14.11,33.53,16.16,29.84,16.16z M30.23,7.4c-1.26,0-2,1.01-2,2.91c0,2.04,0.62,2.65,1.86,2.65c1.05,0,1.92-0.85,1.92-2.97
			C32.01,8.17,31.49,7.4,30.23,7.4z"/>
		<path class="st8" d="M41.54,16.05c-3.03,0-3.47-0.14-3.67-0.89c-0.1-0.36-0.14-2-0.14-4.49c0-1.54,0.04-2.71,0.1-3.52l-0.97,0.02
			c-0.21-0.38-0.33-0.77-0.33-1.4c0-1.21,0.72-1.62,3.28-1.62c1.92,0,2.41,0.24,2.41,1.13l-0.02,8.03l3.16-0.04
			c0.16,0.32,0.25,0.73,0.25,1.21C45.62,15.97,44.22,16.05,41.54,16.05z"/>
		<path class="st8" d="M54.06,7.34c-0.41,0-1.79,0-2.6-0.04v1.66l3.26-0.04c0.17,0.3,0.23,0.81,0.23,1.15c0,0.93-0.5,1.54-1.86,1.54
			c-0.52,0-1.63-0.04-1.63-0.04v1.68l4.33-0.04c0.19,0.34,0.31,0.83,0.31,1.19c0,1.25-0.64,1.66-4.35,1.66
			c-3.38,0-4.21-0.08-4.43-0.81c-0.16-0.5-0.16-2.57-0.16-4.57c0-1.52,0.04-2.61,0.08-3.42l-0.93-0.02
			c-0.25-0.4-0.37-0.93-0.37-1.48c0-0.91,0.66-1.5,2.08-1.5l5.92,0.02l1.94-0.06c0.25,0.3,0.45,0.83,0.45,1.33
			C56.33,6.84,55.62,7.34,54.06,7.34z"/>
		<path class="st8" d="M64.68,7.5c-0.17,0-0.62,0-0.83-0.02v8.21c-0.35,0.22-1.11,0.34-2.21,0.34c-1.84,0-2.23-0.34-2.31-1.03
			c-0.08-0.65-0.1-2.22-0.1-4.23c0-1.54,0.04-2.55,0.06-3.36L56.82,7.4c-0.27-0.38-0.43-0.93-0.43-1.58c0-0.99,0.62-1.56,2.06-1.56
			l6.06,0.02l1.96-0.12c0.29,0.36,0.41,0.87,0.41,1.39C66.87,6.94,66.1,7.5,64.68,7.5z"/>
	</g>
	<rect x="1" y="1" class="st9" width="68.2" height="18"/>
</g>
</svg>
