<?xml version="1.0" encoding="utf-8"?>
<!-- Generator: Adobe Illustrator 25.1.0, SVG Export Plug-In . SVG Version: 6.00 Build 0)  -->
<svg version="1.1" id="Layer_1" xmlns="http://www.w3.org/2000/svg" xmlns:xlink="http://www.w3.org/1999/xlink" x="0px" y="0px"
	 viewBox="0 0 70.2 22.22" style="enable-background:new 0 0 70.2 22.22;" xml:space="preserve">
<style type="text/css">
	.st0{fill:none;}
	.st1{fill:#2E3192;}
	.st2{fill:none;stroke:#2E3192;stroke-width:2;stroke-miterlimit:10;}
	.st3{fill:none;stroke:#000000;stroke-width:2;stroke-miterlimit:10;}
	.st4{fill:#39B54A;}
	.st5{fill:none;stroke:#39B54A;stroke-width:2;stroke-miterlimit:10;}
	.st6{fill:#673795;}
	.st7{fill:none;stroke:#673795;stroke-width:2;stroke-miterlimit:10;}
	.st8{fill:#EC008C;}
	.st9{fill:none;stroke:#EC008C;stroke-width:2;stroke-miterlimit:10;}
	.st10{fill:#8B5E3C;}
	.st11{fill:none;stroke:#8B5E3C;stroke-width:2;stroke-miterlimit:10;}
	.st12{fill:#EF4136;}
	.st13{fill:none;stroke:#EF4136;stroke-width:2;stroke-miterlimit:10;}
	.st14{fill:#00AEEF;}
	.st15{fill:none;stroke:#00AEEF;stroke-width:2;stroke-miterlimit:10;}
	.st16{fill:#662D91;}
	.st17{fill:none;stroke:#662D91;stroke-width:2;stroke-miterlimit:10;}
	.st18{fill:#00A651;}
	.st19{fill:none;stroke:#00A651;stroke-width:2;stroke-miterlimit:10;}
</style>
<g>
	<g>
		<rect x="3.03" y="0.03" class="st0" width="63.73" height="22.2"/>
		<path class="st10" d="M21.41,8.72l-2.78,7.24c-0.38,0.08-1.35,0.14-2,0.14c-1.49,0-2.26-0.32-2.76-1.9l-0.99-3.15l-1.61,4.87
			c-0.46,0.1-0.97,0.18-1.59,0.18c-1.69,0-2.56-0.28-3.05-1.68L4.1,7.16L3.48,7.18C3.21,6.82,3.09,6.35,3.09,5.8
			c0-1.23,0.79-1.62,3.23-1.62c1.35,0,1.75,0.42,2.02,1.29l1.9,6.09l1.47-4.49l-0.56-1.94c0.34-0.79,0.79-0.97,2-0.97
			c1.37,0,1.9,0.3,2.18,1.23l1.84,6.17l1.94-7.18c0.4-0.2,0.83-0.26,1.49-0.26c0.99,0,1.51,0.55,1.51,1.58
			C22.1,6.41,21.83,7.58,21.41,8.72z"/>
		<path class="st10" d="M33.03,16.08c-1.67-0.02-2.22-0.22-2.32-0.79c-0.08-0.57-0.12-1.98-0.14-3.62l-2.54-0.02v4.04
			c-0.3,0.24-1.05,0.34-2,0.34c-1.88,0-2.34-0.24-2.42-1.05c-0.08-0.97-0.14-2.79-0.14-4.31c0-1.54,0.02-2.75,0.06-3.5l-0.97-0.02
			c-0.26-0.4-0.36-0.83-0.36-1.38c0-1.15,0.73-1.62,3.09-1.62c2.5,0,2.74,0.22,2.74,1.17v3.88l2.54-0.02c0-1.13-0.02-1.8,0-2.43
			c0.08-2.2,0.22-2.69,2.48-2.69c1.05,0,1.79,0.2,2.22,0.49l-0.14,1.72v7.12l1.01-0.04c0.18,0.32,0.2,0.79,0.2,1.15
			C36.33,15.85,35.21,16.08,33.03,16.08z"/>
		<path class="st10" d="M42.69,16.04c-0.52,0-5.24-0.04-5.49-0.04c-0.24-0.36-0.34-0.75-0.34-1.23c0-1.11,0.87-1.27,1.55-1.27
			c-0.04-0.81-0.06-1.82-0.06-2.75c0.02-1.52,0.04-2.81,0.1-3.54l-1.31-0.04c-0.26-0.4-0.36-0.85-0.36-1.39
			c0-0.91,0.75-1.52,2.22-1.5l3.35,0.06l1.96-0.06c0.26,0.4,0.36,0.77,0.36,1.31c0,0.93-0.54,1.66-1.57,1.66h-0.28v6.17l1.53-0.06
			c0.22,0.4,0.32,0.87,0.32,1.27C44.66,15.49,44,16.04,42.69,16.04z"/>
		<path class="st10" d="M53.6,7.5c-0.18,0-0.65,0-0.87-0.02v8.21c-0.36,0.22-1.15,0.34-2.3,0.34c-1.92,0-2.32-0.34-2.4-1.03
			c-0.08-0.65-0.1-2.22-0.1-4.23c0-1.54,0.04-2.55,0.06-3.36L45.43,7.4c-0.28-0.38-0.44-0.93-0.44-1.58c0-0.99,0.65-1.56,2.14-1.56
			l6.29,0.02l2.04-0.12c0.3,0.36,0.42,0.87,0.42,1.4C55.88,6.94,55.07,7.5,53.6,7.5z"/>
		<path class="st10" d="M64.31,7.34c-0.42,0-1.86,0-2.7-0.04v1.66l3.39-0.04c0.18,0.3,0.24,0.81,0.24,1.15
			c0,0.93-0.53,1.54-1.94,1.54c-0.54,0-1.7-0.04-1.7-0.04v1.68l4.5-0.04c0.2,0.34,0.32,0.83,0.32,1.19c0,1.25-0.67,1.66-4.52,1.66
			c-3.51,0-4.38-0.08-4.6-0.81c-0.16-0.51-0.16-2.57-0.16-4.57c0-1.52,0.04-2.61,0.08-3.42l-0.97-0.02
			c-0.26-0.4-0.38-0.93-0.38-1.48c0-0.91,0.69-1.5,2.16-1.5l6.15,0.02l2.02-0.06c0.26,0.3,0.46,0.83,0.46,1.33
			C66.67,6.84,65.92,7.34,64.31,7.34z"/>
	</g>
	<rect x="1" y="1" class="st11" width="68.2" height="18"/>
</g>
</svg>
