<?xml version="1.0" encoding="utf-8"?>
<!-- Generator: Adobe Illustrator 25.1.0, SVG Export Plug-In . SVG Version: 6.00 Build 0)  -->
<svg version="1.1" id="Layer_1" xmlns="http://www.w3.org/2000/svg" xmlns:xlink="http://www.w3.org/1999/xlink" x="0px" y="0px"
	 viewBox="0 0 70.2 22.22" style="enable-background:new 0 0 70.2 22.22;" xml:space="preserve">
<style type="text/css">
	.st0{fill:none;}
	.st1{fill:#2E3192;}
	.st2{fill:none;stroke:#2E3192;stroke-width:2;stroke-miterlimit:10;}
	.st3{fill:none;stroke:#000000;stroke-width:2;stroke-miterlimit:10;}
	.st4{fill:#39B54A;}
	.st5{fill:none;stroke:#39B54A;stroke-width:2;stroke-miterlimit:10;}
	.st6{fill:#673795;}
	.st7{fill:none;stroke:#673795;stroke-width:2;stroke-miterlimit:10;}
	.st8{fill:#EC008C;}
	.st9{fill:none;stroke:#EC008C;stroke-width:2;stroke-miterlimit:10;}
	.st10{fill:#8B5E3C;}
	.st11{fill:none;stroke:#8B5E3C;stroke-width:2;stroke-miterlimit:10;}
	.st12{fill:#EF4136;}
	.st13{fill:none;stroke:#EF4136;stroke-width:2;stroke-miterlimit:10;}
	.st14{fill:#00AEEF;}
	.st15{fill:none;stroke:#00AEEF;stroke-width:2;stroke-miterlimit:10;}
	.st16{fill:#662D91;}
	.st17{fill:none;stroke:#662D91;stroke-width:2;stroke-miterlimit:10;}
	.st18{fill:#00A651;}
	.st19{fill:none;stroke:#00A651;stroke-width:2;stroke-miterlimit:10;}
</style>
<g>
	<g>
		<rect x="2.95" y="0.03" class="st0" width="63.87" height="22.2"/>
		<path class="st18" d="M14.73,8.01l-3.57,7.95c-0.33,0.08-1.01,0.14-1.74,0.14c-1.9,0-2.54-0.51-2.97-1.68L3.84,7.16L3.26,7.18
			C2.99,6.82,2.87,6.35,2.87,5.8c0-1.23,0.76-1.62,3.1-1.62c1.41,0,1.82,0.32,2.13,1.21l1.88,5.74c0,0,1.72-4.79,2.29-6.75
			c0.37-0.2,0.79-0.26,1.43-0.26c1.28,0,1.71,0.59,1.71,1.48C15.41,6.33,15.22,6.92,14.73,8.01z"/>
		<path class="st18" d="M21.34,16.04c-0.5,0-5.04-0.04-5.27-0.04c-0.23-0.36-0.33-0.75-0.33-1.23c0-1.11,0.83-1.27,1.49-1.27
			c-0.04-0.81-0.06-1.82-0.06-2.75c0.02-1.52,0.04-2.81,0.1-3.54l-1.26-0.04c-0.25-0.4-0.35-0.85-0.35-1.39
			c0-0.91,0.72-1.52,2.13-1.5l3.22,0.06l1.88-0.06c0.25,0.41,0.35,0.77,0.35,1.31c0,0.93-0.52,1.66-1.51,1.66h-0.27v6.17l1.47-0.06
			c0.21,0.4,0.31,0.87,0.31,1.27C23.24,15.49,22.6,16.04,21.34,16.04z"/>
		<path class="st18" d="M29.79,16.16c-3.58,0-6.07-1.29-6.07-5.36c0-4.1,2.54-6.75,6.63-6.75c3.7,0,5.72,1.98,5.72,5.74
			C36.07,14.11,33.47,16.16,29.79,16.16z M30.17,7.4c-1.26,0-2,1.01-2,2.91c0,2.04,0.62,2.65,1.86,2.65c1.05,0,1.92-0.85,1.92-2.97
			C31.96,8.17,31.43,7.4,30.17,7.4z"/>
		<path class="st18" d="M41.47,16.05c-3.02,0-3.47-0.14-3.66-0.89c-0.1-0.36-0.14-2-0.14-4.49c0-1.54,0.04-2.71,0.1-3.52L36.8,7.18
			c-0.21-0.38-0.33-0.77-0.33-1.4c0-1.21,0.72-1.62,3.28-1.62c1.92,0,2.4,0.24,2.4,1.13l-0.02,8.03l3.16-0.04
			c0.16,0.32,0.25,0.73,0.25,1.21C45.54,15.97,44.14,16.05,41.47,16.05z"/>
		<path class="st18" d="M53.97,7.34c-0.41,0-1.78,0-2.6-0.04v1.66l3.26-0.04c0.17,0.3,0.23,0.81,0.23,1.15
			c0,0.93-0.5,1.54-1.86,1.54c-0.52,0-1.63-0.04-1.63-0.04v1.68l4.32-0.04C55.88,13.55,56,14.03,56,14.4c0,1.25-0.64,1.66-4.34,1.66
			c-3.37,0-4.21-0.08-4.42-0.81c-0.15-0.5-0.15-2.57-0.15-4.57c0-1.52,0.04-2.61,0.08-3.42l-0.93-0.02
			c-0.25-0.4-0.37-0.93-0.37-1.48c0-0.91,0.66-1.5,2.07-1.5l5.91,0.02l1.94-0.06c0.25,0.3,0.45,0.83,0.45,1.33
			C56.23,6.84,55.52,7.34,53.97,7.34z"/>
		<path class="st18" d="M64.56,7.5c-0.17,0-0.62,0-0.83-0.02v8.21c-0.35,0.22-1.1,0.34-2.21,0.34c-1.84,0-2.23-0.34-2.31-1.03
			c-0.08-0.65-0.1-2.22-0.1-4.23c0-1.54,0.04-2.55,0.06-3.36L56.71,7.4c-0.27-0.38-0.43-0.93-0.43-1.58c0-0.99,0.62-1.56,2.05-1.56
			l6.05,0.02l1.96-0.12c0.29,0.36,0.41,0.87,0.41,1.39C66.75,6.94,65.98,7.5,64.56,7.5z"/>
	</g>
	<rect x="1" y="1" class="st19" width="68.2" height="18"/>
</g>
</svg>
