<?xml version="1.0" encoding="utf-8"?>
<!-- Generator: Adobe Illustrator 25.1.0, SVG Export Plug-In . SVG Version: 6.00 Build 0)  -->
<svg version="1.1" id="Layer_1" xmlns="http://www.w3.org/2000/svg" xmlns:xlink="http://www.w3.org/1999/xlink" x="0px" y="0px"
	 viewBox="0 0 70.2 22.55" style="enable-background:new 0 0 70.2 22.55;" xml:space="preserve">
<style type="text/css">
	.st0{fill:none;}
	.st1{fill:#2E3192;}
	.st2{fill:none;stroke:#2E3192;stroke-width:2;stroke-miterlimit:10;}
	.st3{fill:none;stroke:#000000;stroke-width:2;stroke-miterlimit:10;}
	.st4{fill:#39B54A;}
	.st5{fill:none;stroke:#39B54A;stroke-width:2;stroke-miterlimit:10;}
	.st6{fill:#673795;}
	.st7{fill:none;stroke:#673795;stroke-width:2;stroke-miterlimit:10;}
	.st8{fill:#EC008C;}
	.st9{fill:none;stroke:#EC008C;stroke-width:2;stroke-miterlimit:10;}
	.st10{fill:#8B5E3C;}
	.st11{fill:none;stroke:#8B5E3C;stroke-width:2;stroke-miterlimit:10;}
	.st12{fill:#EF4136;}
	.st13{fill:none;stroke:#EF4136;stroke-width:2;stroke-miterlimit:10;}
	.st14{fill:#00AEEF;}
	.st15{fill:none;stroke:#00AEEF;stroke-width:2;stroke-miterlimit:10;}
	.st16{fill:#662D91;}
	.st17{fill:none;stroke:#662D91;stroke-width:2;stroke-miterlimit:10;}
	.st18{fill:#00A651;}
	.st19{fill:none;stroke:#00A651;stroke-width:2;stroke-miterlimit:10;}
</style>
<g>
	<g>
		<g>
			<path class="st12" d="M7.66,16.26c-2.53,0-3.21-0.23-3.34-0.97c-0.09-0.55-0.15-2.44-0.15-4.48c0-1.54,0.04-2.69,0.07-3.51
				L3.41,7.35C3.16,7.04,3.03,6.57,3.03,6.09c0-1.58,0.95-1.93,5.34-1.93c3.87,0,4.65,1.44,4.65,3.08c0,1.09-0.6,1.97-1.39,2.26
				c1.31,0.35,1.84,1.31,1.84,2.57C13.48,14.74,11.64,16.26,7.66,16.26z M8.57,7.18H8.08v2.05c0.24-0.02,0.64-0.02,1.28-0.02
				c0.2-0.27,0.27-0.6,0.27-1.07C9.63,7.57,9.3,7.18,8.57,7.18z M8.7,11.29c-0.18,0-0.42,0.02-0.6,0.04v2.3
				c0.13,0.02,0.27,0.04,0.42,0.04c0.77,0,1.35-0.41,1.35-1.36C9.87,11.68,9.6,11.29,8.7,11.29z"/>
			<path class="st12" d="M22.23,16.32c-1.08,0-1.62-0.27-1.91-1.23l-0.93-3.04h-0.47v3.92c-0.24,0.16-0.89,0.29-1.73,0.29
				c-1.6,0-2.02-0.37-2.08-1.07c-0.05-0.76-0.09-2.63-0.09-4.38c0-1.01,0.02-2.12,0.09-3.51l-0.86,0.04
				c-0.26-0.31-0.38-0.78-0.38-1.25c0-1.58,0.95-1.93,5.34-1.93c3.65,0,5.09,1.33,5.09,3.76c0,1.73-0.73,2.51-1.39,2.92l1.29,2.71
				l0.73-0.02c0.18,0.35,0.27,0.68,0.27,1.13C25.2,15.77,24.34,16.32,22.23,16.32z M19.46,7.22h-0.53v2.61
				c0.13,0.02,0.27,0.02,0.4,0.02c0.73,0,1.39-0.47,1.39-1.46C20.71,7.67,20.33,7.22,19.46,7.22z"/>
			<path class="st12" d="M31.27,16.38c-3.37,0-5.71-1.31-5.71-5.44c0-4.17,2.39-6.86,6.24-6.86c3.48,0,5.38,2.01,5.38,5.83
				C37.18,14.31,34.73,16.38,31.27,16.38z M31.63,7.49c-1.19,0-1.88,1.03-1.88,2.96c0,2.07,0.58,2.69,1.75,2.69
				c0.98,0,1.81-0.86,1.81-3.02C33.31,8.27,32.82,7.49,31.63,7.49z"/>
			<path class="st12" d="M54.13,8.82l-2.52,7.35c-0.35,0.08-1.22,0.14-1.81,0.14c-1.35,0-2.04-0.33-2.5-1.93l-0.89-3.2l-1.46,4.95
				c-0.42,0.1-0.88,0.18-1.44,0.18c-1.53,0-2.32-0.29-2.75-1.7l-2.28-7.37l-0.56,0.02c-0.24-0.37-0.35-0.84-0.35-1.4
				c0-1.25,0.71-1.64,2.92-1.64c1.22,0,1.59,0.43,1.82,1.31l1.71,6.18l1.33-4.56l-0.51-1.97c0.31-0.8,0.71-0.99,1.81-0.99
				c1.24,0,1.71,0.31,1.97,1.25l1.66,6.26l1.75-7.29c0.36-0.21,0.75-0.27,1.35-0.27c0.89,0,1.37,0.55,1.37,1.6
				C54.75,6.48,54.51,7.67,54.13,8.82z"/>
			<path class="st12" d="M66.67,15.93c-0.46,0.27-1.04,0.35-1.59,0.35c-0.97,0-1.4-0.12-1.77-0.49c-0.84-0.88-3.61-4.54-4.16-5.63
				c0.07,0.49,0.13,1.21,0.13,1.77l-0.02,4.13c-0.33,0.14-0.88,0.21-1.46,0.21c-1.28,0-1.66-0.31-1.71-0.88
				c-0.07-0.76-0.11-2.53-0.11-4.56c0-1.54,0.04-2.75,0.07-3.57l-0.91,0.02c-0.2-0.39-0.31-0.8-0.31-1.44c0-1.17,0.75-1.62,2.7-1.62
				c1.77,0,2.28,0.31,3.1,1.42l2.21,2.98c0.36,0.51,0.69,0.99,0.8,1.33V8.8c0-2.03-0.02-3.14-0.07-4.21
				c0.38-0.29,0.98-0.41,1.62-0.41c1.4,0,1.64,0.49,1.64,3.61C66.83,11.56,66.76,14.25,66.67,15.93z"/>
		</g>
	</g>
	<rect x="1" y="1.74" class="st13" width="68.2" height="18"/>
</g>
</svg>
