<?xml version="1.0" encoding="utf-8"?>
<!-- Generator: Adobe Illustrator 25.1.0, SVG Export Plug-In . SVG Version: 6.00 Build 0)  -->
<svg version="1.1" id="Layer_1" xmlns="http://www.w3.org/2000/svg" xmlns:xlink="http://www.w3.org/1999/xlink" x="0px" y="0px"
	 viewBox="0 0 70.2 22.57" style="enable-background:new 0 0 70.2 22.57;" xml:space="preserve">
<style type="text/css">
	.st0{fill:none;}
	.st1{fill:#2E3192;}
	.st2{fill:none;stroke:#2E3192;stroke-width:2;stroke-miterlimit:10;}
	.st3{fill:none;stroke:#000000;stroke-width:2;stroke-miterlimit:10;}
	.st4{fill:#39B54A;}
	.st5{fill:none;stroke:#39B54A;stroke-width:2;stroke-miterlimit:10;}
	.st6{fill:#673795;}
	.st7{fill:none;stroke:#673795;stroke-width:2;stroke-miterlimit:10;}
	.st8{fill:#EC008C;}
	.st9{fill:none;stroke:#EC008C;stroke-width:2;stroke-miterlimit:10;}
	.st10{fill:#8B5E3C;}
	.st11{fill:none;stroke:#8B5E3C;stroke-width:2;stroke-miterlimit:10;}
	.st12{fill:#EF4136;}
	.st13{fill:none;stroke:#EF4136;stroke-width:2;stroke-miterlimit:10;}
	.st14{fill:#00AEEF;}
	.st15{fill:none;stroke:#00AEEF;stroke-width:2;stroke-miterlimit:10;}
	.st16{fill:#662D91;}
	.st17{fill:none;stroke:#662D91;stroke-width:2;stroke-miterlimit:10;}
	.st18{fill:#00A651;}
	.st19{fill:none;stroke:#00A651;stroke-width:2;stroke-miterlimit:10;}
</style>
<g>
	<g>
		<rect x="3.03" y="0.03" class="st0" width="64.03" height="22.54"/>
		<path class="st12" d="M8.98,12.47c-0.31,0-0.47-0.06-0.67-0.06v3.53c-0.22,0.21-0.93,0.35-1.9,0.35c-1.73,0-2.04-0.37-2.1-1.07
			c-0.05-0.76-0.11-2.63-0.11-4.37c0-1.56,0.07-2.69,0.11-3.51L3.45,7.37C3.2,7.06,3.07,6.59,3.07,6.12c0-1.58,0.95-1.93,5.34-1.93
			c3.87,0,5.29,1.36,5.29,3.82C13.7,11.4,11.46,12.47,8.98,12.47z M8.85,7.25H8.32v2.69c0.13,0.02,0.25,0.02,0.4,0.02
			c0.73,0,1.31-0.37,1.31-1.44C10.04,7.54,9.49,7.25,8.85,7.25z"/>
		<path class="st12" d="M20.1,16.39c-3.56,0-5.03-1.23-5.03-5.52c0-1.56,0.04-2.77,0.05-3.59l-0.8,0.02
			c-0.24-0.43-0.33-0.82-0.33-1.38c0-1.36,0.82-1.68,3.01-1.68c1.81,0,2.21,0.25,2.21,1.15l-0.04,6.33c0,1.23,0.46,1.5,1.17,1.5
			c0.69,0,1.37-0.27,1.42-1.68c0.04-0.84,0.05-1.36,0.05-2.69c0-1.4-0.05-3.02-0.15-4.25c0.46-0.29,1.08-0.37,1.73-0.37
			c1.6,0,1.93,0.41,1.93,4.17C25.33,12.75,25.26,16.39,20.1,16.39z"/>
		<path class="st12" d="M34.41,16.35c-1.08,0-1.62-0.27-1.92-1.23l-0.93-3.04h-0.47V16c-0.24,0.17-0.89,0.29-1.73,0.29
			c-1.6,0-2.02-0.37-2.08-1.07c-0.05-0.76-0.09-2.63-0.09-4.37c0-1.01,0.02-2.12,0.09-3.51l-0.86,0.04
			c-0.26-0.31-0.38-0.78-0.38-1.25c0-1.58,0.95-1.93,5.34-1.93c3.65,0,5.09,1.33,5.09,3.76c0,1.73-0.73,2.51-1.39,2.92l1.29,2.71
			l0.73-0.02c0.18,0.35,0.27,0.68,0.27,1.13C37.38,15.79,36.52,16.35,34.41,16.35z M31.64,7.25h-0.53v2.61
			c0.13,0.02,0.27,0.02,0.4,0.02c0.73,0,1.39-0.47,1.39-1.46C32.89,7.7,32.51,7.25,31.64,7.25z"/>
		<path class="st12" d="M43.37,12.47c-0.31,0-0.47-0.06-0.67-0.06v3.53c-0.22,0.21-0.93,0.35-1.9,0.35c-1.73,0-2.04-0.37-2.1-1.07
			c-0.05-0.76-0.11-2.63-0.11-4.37c0-1.56,0.07-2.69,0.11-3.51l-0.86,0.04c-0.25-0.31-0.38-0.78-0.38-1.25
			c0-1.58,0.95-1.93,5.34-1.93c3.87,0,5.29,1.36,5.29,3.82C48.1,11.4,45.85,12.47,43.37,12.47z M43.25,7.25h-0.53v2.69
			c0.13,0.02,0.25,0.02,0.4,0.02c0.73,0,1.31-0.37,1.31-1.44C44.43,7.54,43.89,7.25,43.25,7.25z"/>
		<path class="st12" d="M53.09,16.31c-2.84,0-3.26-0.14-3.45-0.9c-0.09-0.37-0.13-2.03-0.13-4.56c0-1.56,0.04-2.75,0.09-3.57
			l-0.91,0.02c-0.2-0.39-0.31-0.78-0.31-1.42c0-1.23,0.67-1.64,3.08-1.64c1.81,0,2.26,0.25,2.26,1.15l-0.02,8.15l2.97-0.04
			c0.15,0.33,0.24,0.74,0.24,1.23C56.92,16.22,55.61,16.31,53.09,16.31z"/>
		<path class="st12" d="M64.85,7.45c-0.38,0-1.68,0-2.44-0.04V9.1l3.06-0.04c0.16,0.31,0.22,0.82,0.22,1.17
			c0,0.94-0.47,1.56-1.75,1.56c-0.49,0-1.53-0.04-1.53-0.04v1.7l4.07-0.04c0.18,0.35,0.29,0.84,0.29,1.21c0,1.27-0.6,1.68-4.08,1.68
			c-3.17,0-3.96-0.08-4.16-0.82c-0.15-0.51-0.15-2.61-0.15-4.64c0-1.54,0.04-2.65,0.07-3.47l-0.88-0.02
			c-0.24-0.41-0.35-0.94-0.35-1.5c0-0.92,0.62-1.52,1.95-1.52l5.56,0.02l1.82-0.06c0.24,0.31,0.42,0.84,0.42,1.36
			C66.98,6.94,66.31,7.45,64.85,7.45z"/>
	</g>
	<rect x="1" y="1" class="st13" width="68.2" height="18"/>
</g>
</svg>
