<?xml version="1.0" encoding="utf-8"?>
<!-- Generator: Adobe Illustrator 25.1.0, SVG Export Plug-In . SVG Version: 6.00 Build 0)  -->
<svg version="1.1" id="Layer_1" xmlns="http://www.w3.org/2000/svg" xmlns:xlink="http://www.w3.org/1999/xlink" x="0px" y="0px"
	 viewBox="0 0 70.2 21.35" style="enable-background:new 0 0 70.2 21.35;" xml:space="preserve">
<style type="text/css">
	.st0{fill:none;}
	.st1{fill:#2E3192;}
	.st2{fill:none;stroke:#2E3192;stroke-width:2;stroke-miterlimit:10;}
	.st3{fill:none;stroke:#000000;stroke-width:2;stroke-miterlimit:10;}
	.st4{fill:#39B54A;}
	.st5{fill:none;stroke:#39B54A;stroke-width:2;stroke-miterlimit:10;}
	.st6{fill:#673795;}
	.st7{fill:none;stroke:#673795;stroke-width:2;stroke-miterlimit:10;}
	.st8{fill:#EC008C;}
	.st9{fill:none;stroke:#EC008C;stroke-width:2;stroke-miterlimit:10;}
	.st10{fill:#8B5E3C;}
	.st11{fill:none;stroke:#8B5E3C;stroke-width:2;stroke-miterlimit:10;}
	.st12{fill:#EF4136;}
	.st13{fill:none;stroke:#EF4136;stroke-width:2;stroke-miterlimit:10;}
	.st14{fill:#00AEEF;}
	.st15{fill:none;stroke:#00AEEF;stroke-width:2;stroke-miterlimit:10;}
	.st16{fill:#662D91;}
	.st17{fill:none;stroke:#662D91;stroke-width:2;stroke-miterlimit:10;}
	.st18{fill:#00A651;}
	.st19{fill:none;stroke:#00A651;stroke-width:2;stroke-miterlimit:10;}
</style>
<g>
	<g>
		<rect x="2.99" y="0.43" class="st0" width="63.81" height="20.92"/>
		<path class="st1" d="M7.6,15.52c-2.5,0-3.17-0.21-3.29-0.9c-0.09-0.51-0.14-2.27-0.14-4.15c0-1.43,0.04-2.5,0.07-3.26L3.41,7.24
			C3.16,6.96,3.03,6.52,3.03,6.08c0-1.47,0.94-1.79,5.28-1.79c3.82,0,4.59,1.33,4.59,2.86c0,1.01-0.59,1.83-1.37,2.1
			c1.3,0.32,1.82,1.22,1.82,2.38C13.35,14.11,11.53,15.52,7.6,15.52z M8.5,7.09H8.02V9c0.23-0.02,0.63-0.02,1.26-0.02
			c0.2-0.25,0.27-0.55,0.27-0.99C9.55,7.45,9.22,7.09,8.5,7.09z M8.63,10.9c-0.18,0-0.41,0.02-0.59,0.04v2.13
			c0.13,0.02,0.27,0.04,0.41,0.04c0.76,0,1.33-0.38,1.33-1.26C9.78,11.27,9.51,10.9,8.63,10.9z"/>
		<path class="st1" d="M21.99,15.57c-1.06,0-1.6-0.25-1.89-1.14l-0.92-2.82h-0.47v3.64c-0.23,0.15-0.88,0.27-1.71,0.27
			c-1.58,0-2-0.34-2.05-0.99c-0.05-0.71-0.09-2.44-0.09-4.06c0-0.93,0.02-1.96,0.09-3.26L14.1,7.24c-0.25-0.29-0.38-0.72-0.38-1.16
			c0-1.47,0.94-1.79,5.28-1.79c3.6,0,5.02,1.24,5.02,3.49c0,1.6-0.72,2.33-1.37,2.71L23.93,13l0.72-0.02
			c0.18,0.32,0.27,0.63,0.27,1.05C24.92,15.06,24.08,15.57,21.99,15.57z M19.25,7.13h-0.52v2.42c0.13,0.02,0.27,0.02,0.4,0.02
			c0.72,0,1.37-0.44,1.37-1.35C20.49,7.55,20.11,7.13,19.25,7.13z"/>
		<path class="st1" d="M30.91,15.63c-3.33,0-5.64-1.22-5.64-5.05c0-3.87,2.36-6.37,6.16-6.37c3.44,0,5.31,1.87,5.31,5.41
			C36.75,13.71,34.34,15.63,30.91,15.63z M31.27,7.38c-1.17,0-1.85,0.95-1.85,2.74c0,1.92,0.58,2.5,1.73,2.5
			c0.97,0,1.78-0.8,1.78-2.8C32.93,8.1,32.44,7.38,31.27,7.38z"/>
		<path class="st1" d="M53.49,8.62L51,15.44c-0.34,0.08-1.21,0.13-1.78,0.13c-1.33,0-2.02-0.3-2.47-1.79l-0.88-2.97l-1.44,4.59
			c-0.41,0.1-0.86,0.17-1.42,0.17c-1.51,0-2.29-0.27-2.72-1.58l-2.25-6.84l-0.56,0.02c-0.23-0.34-0.34-0.78-0.34-1.3
			c0-1.16,0.7-1.52,2.88-1.52c1.21,0,1.57,0.4,1.8,1.22l1.69,5.74l1.31-4.23l-0.5-1.83c0.31-0.74,0.7-0.91,1.78-0.91
			c1.22,0,1.69,0.29,1.95,1.16l1.64,5.81l1.73-6.77c0.36-0.19,0.74-0.25,1.33-0.25c0.88,0,1.35,0.51,1.35,1.49
			C54.1,6.44,53.87,7.55,53.49,8.62z"/>
		<path class="st1" d="M65.87,15.21c-0.45,0.25-1.03,0.32-1.57,0.32c-0.96,0-1.39-0.11-1.75-0.46c-0.83-0.82-3.57-4.21-4.11-5.22
			c0.07,0.46,0.13,1.12,0.13,1.64l-0.02,3.83c-0.32,0.13-0.86,0.19-1.44,0.19c-1.26,0-1.64-0.29-1.69-0.82
			c-0.07-0.71-0.11-2.34-0.11-4.23c0-1.43,0.04-2.55,0.07-3.32l-0.9,0.02c-0.2-0.36-0.31-0.74-0.31-1.33c0-1.09,0.74-1.51,2.66-1.51
			c1.75,0,2.25,0.29,3.06,1.31l2.18,2.76c0.36,0.48,0.68,0.92,0.79,1.24V8.6c0-1.89-0.02-2.92-0.07-3.91
			c0.38-0.27,0.97-0.38,1.6-0.38c1.39,0,1.62,0.46,1.62,3.35C66.03,11.15,65.96,13.65,65.87,15.21z"/>
	</g>
	<rect x="1" y="1" class="st2" width="68.2" height="18"/>
</g>
</svg>
