<?xml version="1.0" encoding="utf-8"?>
<!-- Generator: Adobe Illustrator 25.1.0, SVG Export Plug-In . SVG Version: 6.00 Build 0)  -->
<svg version="1.1" id="Layer_1" xmlns="http://www.w3.org/2000/svg" xmlns:xlink="http://www.w3.org/1999/xlink" x="0px" y="0px"
	 viewBox="0 0 70.2 22.22" style="enable-background:new 0 0 70.2 22.22;" xml:space="preserve">
<style type="text/css">
	.st0{fill:none;}
	.st1{fill:#2E3192;}
	.st2{fill:none;stroke:#2E3192;stroke-width:2;stroke-miterlimit:10;}
	.st3{fill:none;stroke:#000000;stroke-width:2;stroke-miterlimit:10;}
	.st4{fill:#39B54A;}
	.st5{fill:none;stroke:#39B54A;stroke-width:2;stroke-miterlimit:10;}
	.st6{fill:#673795;}
	.st7{fill:none;stroke:#673795;stroke-width:2;stroke-miterlimit:10;}
	.st8{fill:#EC008C;}
	.st9{fill:none;stroke:#EC008C;stroke-width:2;stroke-miterlimit:10;}
	.st10{fill:#8B5E3C;}
	.st11{fill:none;stroke:#8B5E3C;stroke-width:2;stroke-miterlimit:10;}
	.st12{fill:#EF4136;}
	.st13{fill:none;stroke:#EF4136;stroke-width:2;stroke-miterlimit:10;}
	.st14{fill:#00AEEF;}
	.st15{fill:none;stroke:#00AEEF;stroke-width:2;stroke-miterlimit:10;}
	.st16{fill:#662D91;}
	.st17{fill:none;stroke:#662D91;stroke-width:2;stroke-miterlimit:10;}
	.st18{fill:#00A651;}
	.st19{fill:none;stroke:#00A651;stroke-width:2;stroke-miterlimit:10;}
</style>
<g>
	<g>
		<rect x="3.03" y="0.03" class="st0" width="63.64" height="22.2"/>
		<path class="st6" d="M17.44,6.29v9.62c-0.37,0.08-1.17,0.16-1.77,0.16c-1.3,0-1.79-0.24-1.86-0.75c-0.11-0.69-0.15-1.07-0.15-4
			c0-0.73,0.07-1.54,0.15-1.98l-2.08,5.3c-0.33,0.18-0.8,0.26-1.23,0.26c-0.82,0-1.27-0.14-1.53-0.87L7.24,9.28
			c0.13,0.51,0.21,1.25,0.21,1.74l0.02,4.83c-0.32,0.1-0.93,0.18-1.45,0.18c-1.3,0-1.54-0.26-1.62-0.77
			c-0.11-0.69-0.15-2.59-0.15-4.59c0-1.52,0.04-2.71,0.08-3.52L3.39,7.18C3.15,6.82,3.07,6.45,3.07,5.89c0-1.29,1.04-1.72,3.44-1.72
			c1.84,0,2.68,0.55,3.15,1.7l1.45,3.52l1.77-4.06c0.35-0.83,0.86-1.23,1.92-1.23c1.27,0,2.18,0.26,2.79,0.89L17.44,6.29z"/>
		<path class="st6" d="M24.44,16.16c-3.44,0-5.83-1.29-5.83-5.36c0-4.1,2.44-6.75,6.37-6.75c3.56,0,5.49,1.98,5.49,5.74
			C30.47,14.11,27.98,16.16,24.44,16.16z M24.81,7.4c-1.21,0-1.92,1.01-1.92,2.91c0,2.04,0.6,2.65,1.79,2.65
			c1.01,0,1.84-0.85,1.84-2.97C26.52,8.17,26.02,7.4,24.81,7.4z"/>
		<path class="st6" d="M36.58,16.16c-3.46,0-5.4-1.62-5.4-5.48c0-3.88,2.48-6.59,6.55-6.59c2.38,0,3.13,0.67,3.13,1.94
			c0,0.79-0.41,1.46-0.97,1.82c-0.26-0.1-0.88-0.2-1.49-0.2c-1.88,0-2.85,1.13-2.85,2.71c0,1.82,0.69,2.45,1.97,2.45
			c0.89,0,1.82-0.24,2.38-0.57c0.65,0.26,1.1,0.93,1.1,1.64C41.01,15.39,39.39,16.16,36.58,16.16z"/>
		<path class="st6" d="M51.26,16.08c-1.54-0.02-2.05-0.22-2.14-0.79c-0.07-0.57-0.11-1.98-0.13-3.62l-2.35-0.02v4.04
			c-0.28,0.24-0.97,0.34-1.84,0.34c-1.73,0-2.16-0.24-2.23-1.05c-0.07-0.97-0.13-2.79-0.13-4.31c0-1.54,0.02-2.75,0.06-3.5
			L41.6,7.16c-0.24-0.4-0.33-0.83-0.33-1.38c0-1.15,0.67-1.62,2.85-1.62c2.31,0,2.53,0.22,2.53,1.17v3.88l2.35-0.02
			c0-1.13-0.02-1.8,0-2.43c0.07-2.2,0.2-2.69,2.29-2.69c0.97,0,1.66,0.2,2.05,0.49L53.2,6.29v7.12l0.93-0.04
			c0.17,0.32,0.19,0.79,0.19,1.15C54.32,15.85,53.27,16.08,51.26,16.08z"/>
		<path class="st6" d="M63.38,16.12c-1.14,0-1.66-0.16-1.97-1.09l-0.54-1.56l-2.36-0.02l-0.84,2.49c-0.26,0.06-0.84,0.14-1.47,0.14
			c-1.21,0-1.66-0.42-1.66-1.44c0-0.51,0.11-0.93,0.43-1.64L58,5.74c0.5-1.17,1.08-1.6,2.46-1.6c0.69,0,1.32,0.14,1.75,0.3
			l3.56,8.96l0.6-0.04c0.17,0.32,0.26,0.73,0.26,1.03C66.62,15.71,65.74,16.12,63.38,16.12z M59.77,8.98l-0.76,2.39l1.42-0.02
			L59.77,8.98z"/>
	</g>
	<rect x="1" y="1" class="st7" width="68.2" height="18"/>
</g>
</svg>
